<svg width="25" height="17" viewBox="0 0 25 17" fill="none" xmlns="http://www.w3.org/2000/svg">
<path fill-rule="evenodd" clip-rule="evenodd" d="M0.5 12C0.5 14.4785 2.52148 16.5 5 16.5H20C22.4785 16.5 24.5 14.4785 24.5 12C24.5 10.6523 23.9023 9.39844 22.8711 8.54297C22.959 8.19727 23 7.8457 23 7.5C23 4.76953 20.5859 2.54297 17.7383 3.07617C16.6836 1.18945 14.6973 0 12.5 0C9.75195 0 7.36133 1.91016 6.70508 4.54102C5.08203 4.77539 3.79883 6.05859 3.55273 7.74023C1.75391 8.34961 0.5 10.0605 0.5 12ZM7.17383 5.99414L7.28516 5.25586L7.32617 6.00586H7.97656L8.07031 5.36133C8.38086 3.1582 10.2852 1.5 12.5 1.5C14.3105 1.5 15.9395 2.57812 16.6426 4.24805L16.9121 4.88086L17.5684 4.66406C17.9082 4.55273 18.2129 4.5 18.5 4.5C20.1523 4.5 21.5 5.84766 21.5 7.5C21.5 7.85156 21.4297 8.20898 21.2949 8.56641L21.0723 9.14062L21.5938 9.46875C22.4727 10.0254 23 10.9688 23 12C23 13.6523 21.6523 15 20 15H5C3.34766 15 2 13.6523 2 12C2 10.5762 3.01367 9.33984 4.40234 9.05859L5.01758 8.88281L5 8.25C5 7.00781 6.00781 6 7.17383 5.99414Z" fill="white"/>
</svg>
