<svg width="97" height="28" viewBox="0 0 97 28" fill="none" xmlns="http://www.w3.org/2000/svg">
<path d="M1.70088 9.13586C1.38535 9.23539 1.18115 9.55751 1.18115 10.0449L1.1831 25.3829C1.1831 25.8649 1.38097 26.1821 1.68776 26.288L10.1984 17.7051L1.70088 9.13586" stroke="black" stroke-width="0.8"/>
<path d="M1.68799 26.288C1.90872 26.3635 2.18536 26.3282 2.48679 26.1615L12.8727 20.4016L10.1987 17.7051L1.68799 26.288" stroke="black" stroke-width="0.8"/>
<path d="M12.8737 20.4016L16.4151 18.438C17.1332 18.0385 17.1332 17.3883 16.4151 16.9897L12.8606 15.0188L10.1982 17.7036L12.8737 20.4016" stroke="black" stroke-width="0.8"/>
<path d="M12.8601 15.0188L2.48636 9.26677C2.19222 9.10449 1.92093 9.06674 1.70117 9.13587L10.1982 17.7036L12.8601 15.0188" stroke="black" stroke-width="0.8"/>
<path fill-rule="evenodd" clip-rule="evenodd" d="M60.533 21.6422C59.9939 21.5917 59.8801 21.4917 59.8801 20.8489L59.884 11.4654C59.9491 10.8864 60.1013 10.7054 60.6099 10.4083H58.2635L57.0344 11.0055H58.3112L58.3175 20.8426V21.2118C58.3175 21.5105 58.2642 21.5796 57.9738 21.9568L57.9733 21.9574C57.9426 21.9973 57.9093 22.0406 57.8731 22.0879H60.7645L61.3712 21.7236C61.2314 21.7068 61.0909 21.6947 60.9498 21.6826C60.8113 21.6707 60.6723 21.6587 60.533 21.6422ZM31.4485 21.7275L29.249 22.2355C28.3578 22.3772 27.5575 22.5017 26.7101 22.5017C22.4676 22.5017 20.8511 19.3526 20.8511 16.8879C20.8511 13.8781 23.1415 11.0874 27.064 11.0874C27.894 11.0874 28.6923 11.2104 29.4196 11.4105C30.5194 11.722 31.0607 12.1027 31.4007 12.3418L31.4485 12.3753L30.1708 13.5991L29.6321 13.7207L30.0162 13.1034L30.0128 13.1001C29.4918 12.587 28.5357 11.6453 26.7247 11.6453C24.2981 11.6453 22.4676 13.5055 22.4676 16.2211C22.4676 19.1379 24.5578 21.8815 27.91 21.8815C28.895 21.8815 29.4021 21.6819 29.8625 21.4956V18.9952L27.54 19.1212L28.771 18.4544H32.0304L31.6317 18.8412C31.5243 18.9334 31.5097 18.9648 31.4796 19.0883C31.4635 19.2295 31.4485 19.6786 31.4485 19.8365V21.7275ZM36.4926 22.3017C33.8842 22.3017 32.4913 20.2537 32.4913 18.3995C32.4913 16.2329 34.246 14.3791 36.7401 14.3791C39.1506 14.3791 40.6597 16.2834 40.6597 18.2828C40.6597 20.2356 39.1686 22.3017 36.4926 22.3017ZM39.0368 19.1285C39.0368 19.7728 38.9386 20.4337 38.5448 20.9632C38.1661 21.4917 37.5122 21.805 36.8719 21.805C34.8868 21.805 34.0821 19.1089 34.0821 17.4743C34.0821 16.7605 34.1959 16.0329 34.8377 15.4538C35.2315 15.1057 35.7706 14.8925 36.3137 14.8925C38.3465 14.8925 39.0368 17.6714 39.0368 19.1285ZM45.224 22.3017C42.6161 22.3017 41.2208 20.2537 41.2208 18.3995C41.2208 16.2329 42.9749 14.3791 45.47 14.3791C47.882 14.3791 49.3926 16.2834 49.3926 18.2828C49.3926 20.2356 47.8995 22.3017 45.224 22.3017ZM47.7687 19.1285C47.7687 19.7728 47.6725 20.4337 47.2757 20.9632C46.898 21.4917 46.2431 21.805 45.6013 21.805C43.6128 21.805 42.8116 19.1089 42.8116 17.4743C42.8116 16.7605 42.9258 16.0329 43.5666 15.4538C43.9595 15.1057 44.5045 14.8925 45.0456 14.8925C47.0803 14.8925 47.7687 17.6714 47.7687 19.1285ZM55.396 15.1911C55.7728 15.5034 56.559 16.1662 56.559 17.4233C56.559 18.6485 55.8739 19.2261 55.1831 19.7728L55.1536 19.8026C54.9488 20.0098 54.7231 20.238 54.7231 20.5822C54.7231 20.9416 54.9618 21.1395 55.1394 21.2867L55.1495 21.2951L55.7422 21.7565C56.4627 22.3698 57.1195 22.9322 57.1195 24.0745C57.1195 25.6307 55.626 27.2001 52.8037 27.2001C50.4262 27.2001 49.2769 26.0582 49.2769 24.834C49.2769 24.2383 49.571 23.3945 50.5414 22.8165C51.5451 22.1977 52.9 22.1079 53.6448 22.0585L53.6744 22.0565L53.6401 22.012C53.4187 21.725 53.1809 21.4169 53.1809 20.9294C53.1809 20.6784 53.2479 20.5182 53.3198 20.3461C53.3282 20.3258 53.3368 20.3054 53.3453 20.2846L53.3338 20.2857C53.1582 20.3025 52.9815 20.3194 52.8207 20.3194C51.0806 20.3194 50.0971 19.0104 50.0971 17.7204C50.0971 16.9595 50.4413 16.1152 51.1482 15.5034C52.0836 14.7268 53.1989 14.5929 54.0852 14.5929H57.4662L56.415 15.1911H55.396ZM53.8558 22.5184C54.0182 22.5184 54.0989 22.5184 54.2335 22.536C55.4782 23.4308 56.0193 23.876 56.0193 24.7197C56.0193 25.7449 55.1831 26.5063 53.6078 26.5063C51.8546 26.5063 50.7213 25.6606 50.7213 24.4878C50.7213 23.3126 51.771 22.917 52.1342 22.7831C52.8207 22.5507 53.707 22.5184 53.8558 22.5184ZM54.7051 19.3923C55.0844 19.0104 55.1174 18.4828 55.1174 18.1833C55.1174 16.9933 54.4139 15.1401 53.0502 15.1401C52.6247 15.1401 52.1638 15.3553 51.9023 15.6882C51.6247 16.0329 51.5415 16.48 51.5415 16.91C51.5415 18.018 52.1823 19.8556 53.5918 19.8556C54.0031 19.8556 54.4455 19.6541 54.7051 19.3923ZM67.9444 20.9769L67.1597 21.7236C67.0993 21.7571 67.0391 21.7924 66.9789 21.8276C66.8583 21.8981 66.7381 21.9684 66.6181 22.0237C66.0731 22.2732 65.5189 22.336 65.0264 22.336C64.5023 22.336 63.6806 22.3017 62.8424 21.6903C61.678 20.8632 61.169 19.4413 61.169 18.2024C61.169 15.6372 63.2396 14.3791 64.9286 14.3791C65.5189 14.3791 66.1251 14.5282 66.6181 14.8425C67.4284 15.3829 67.6449 16.0833 67.7634 16.4668L67.7675 16.48L63.9106 18.0514L62.6475 18.1504C63.0563 20.2537 64.4672 21.477 66.0264 21.477C66.8053 21.477 67.3834 21.2206 67.9138 20.9563C67.9138 20.9563 68.0203 20.9004 67.9444 20.9769ZM66.0935 16.3491C66.0935 16.5795 65.9307 16.6786 65.6176 16.7933L62.6309 18.1004C62.6253 17.9986 62.6177 17.8968 62.6101 17.7957L62.6101 17.7954C62.5956 17.6016 62.5813 17.4105 62.5813 17.2272C62.5813 15.4396 63.8119 14.9248 64.4672 14.9248C65.3521 14.9248 66.0935 15.6882 66.0935 16.3491ZM72.6736 21.0475V25.2615H71.8437V14.5385H72.6736V15.7598C73.2142 14.9704 74.2021 14.3448 75.3495 14.3448C77.4076 14.3448 78.7937 15.9191 78.7937 18.4112C78.7937 20.8867 77.4076 22.4939 75.3495 22.4939C74.2663 22.4939 73.2959 21.9305 72.6736 21.0475ZM75.2095 15.1004C76.9311 15.1004 77.902 16.533 77.902 18.4112C77.902 20.2925 76.9311 21.7373 75.2095 21.7373C74.1404 21.7373 73.1179 20.8592 72.6736 20.1189V16.6864C73.1179 15.9476 74.1404 15.1004 75.2095 15.1004ZM79.927 11.5777H80.7564V22.3007H79.927V11.5777ZM87.5168 21.5731C87.5474 21.7712 87.5892 22.0085 87.6447 22.2776H88.601C88.5266 22.0271 88.4707 21.7682 88.4357 21.5089C88.4017 21.25 88.3885 20.9843 88.3885 20.7092V16.8801C88.3885 16.0603 88.1119 15.4333 87.5606 14.9994C87.0087 14.561 86.2766 14.3414 85.3718 14.3414C84.4641 14.3414 83.7265 14.5645 83.1635 15.0082C82.5981 15.4524 82.3321 15.9667 82.3628 16.5531L82.3803 16.5947H83.2296C83.2296 16.1599 83.4226 15.799 83.8058 15.5078C84.1923 15.2224 84.6999 15.0758 85.3256 15.0758C86.0101 15.0758 86.5381 15.2362 86.9144 15.5534C87.2893 15.8701 87.4769 16.3069 87.4769 16.8624V17.8268H85.5414C84.5039 17.8268 83.6657 18.0426 83.0172 18.4765C82.3686 18.9084 82.0433 19.4732 82.0433 20.1689C82.0433 20.8656 82.268 21.4162 82.7143 21.8227C83.162 22.2296 83.7897 22.4301 84.5982 22.4301C85.2697 22.4301 85.7592 22.2938 86.2746 22.0158C86.7895 21.7398 87.1925 21.3892 87.4769 20.9681C87.4769 21.1735 87.4915 21.3755 87.5168 21.5731ZM84.6998 21.6677C85.4048 21.6677 85.9114 21.5089 86.4292 21.1946C86.9436 20.8823 87.2936 20.4749 87.4769 19.9816V18.4912H85.5322C84.7893 18.4912 84.1743 18.6569 83.6905 18.9913C83.2058 19.3246 82.9603 19.7282 82.9603 20.1974C82.9603 20.6401 83.1159 20.9941 83.4251 21.2623C83.7353 21.5334 84.1592 21.6677 84.6998 21.6677ZM90.7412 24.6972C90.5491 24.6972 90.2462 24.6482 90.0688 24.5682L89.9263 25.3404C90.1335 25.4047 90.4874 25.4527 90.7558 25.4527C91.6499 25.4527 92.3009 24.9835 92.7146 24.0079L96.7018 14.5385H95.763L92.9859 21.3211L90.1816 14.5385H89.2559L92.525 22.3654L91.9197 23.7485C91.6022 24.4878 91.2488 24.6972 90.7412 24.6972Z" fill="black"/>
<path fill-rule="evenodd" clip-rule="evenodd" d="M23.5655 0C22.0267 0 20.7896 1.07115 20.7896 2.73635C20.7896 4.39411 22.0267 5.48013 23.5655 5.48013C24.4777 5.48013 25.2233 5.0917 25.7386 4.51252V2.53767H23.2326V3.35467H24.8185V4.17166C24.5807 4.40154 24.1051 4.64728 23.5655 4.64728C22.5192 4.64728 21.7413 3.83822 21.7413 2.73635C21.7413 1.61813 22.5192 0.825413 23.5655 0.825413C24.1521 0.825413 24.652 1.13408 24.9374 1.53093L25.691 1.09444C25.2704 0.491978 24.5966 0 23.5655 0ZM26.886 0.0871985V5.37708H30.5102V4.56009H27.8135V3.08514H30.4547V2.26815H27.8135V0.904684H30.5102V0.0871985H26.886ZM33.0776 5.37708V0.904684H31.4758V0.0871985H35.6074V0.904684H34.0056V5.37708H33.0776ZM39.7597 0.0871985H38.8322V5.37708H39.7597V0.0871985ZM42.3439 5.37708V0.904684H40.7422V0.0871985H44.8737V0.904684H43.2719V5.37708H42.3439ZM50.5733 0C48.9864 0 47.8686 1.15786 47.8686 2.73635C47.8686 4.31434 48.9864 5.4722 50.5733 5.4722C52.1508 5.4722 53.2774 4.31434 53.2774 2.73635C53.2774 1.15786 52.1508 0 50.5733 0ZM52.3257 2.73635C52.3257 1.64191 51.6355 0.825413 50.5733 0.825413C49.5021 0.825413 48.8204 1.64191 48.8204 2.73635C48.8204 3.82237 49.5021 4.64728 50.5733 4.64728C51.6355 4.64728 52.3257 3.82237 52.3257 2.73635ZM55.2884 1.59435L58.0486 5.37708H58.9448V0.0871985H58.0169V3.75152L55.3127 0.0871985H54.361V5.37708H55.2884V1.59435Z" fill="black"/>
</svg>
